<svg xmlns="http://www.w3.org/2000/svg" xmlns:xlink="http://www.w3.org/1999/xlink" width="250" height="90" viewBox="0 0 250 90"><defs><filter id="a" x="36.496" y="25.502" width="40.011" height="40" filterUnits="userSpaceOnUse"><feOffset input="SourceAlpha"/><feGaussianBlur stdDeviation="0.5" result="b"/><feFlood flood-color="#2c2f33"/><feComposite operator="in" in2="b"/><feComposite in="SourceGraphic"/></filter></defs><g transform="translate(-1276 -1788)"><rect width="250" height="90" rx="3" transform="translate(1276 1788)" fill="#f7f7f7"/><g transform="translate(186 -76)"><g transform="translate(-311.5 -157)"><g transform="translate(1480.117 2320.949) rotate(-90)"><path d="M7.29,15.251l7.968-7.968a.993.993,0,1,0-1.4-1.4L5.887,13.844a.993.993,0,0,0,1.4,1.407Zm2.63-1.377a.9.9,0,0,1,.165.515.882.882,0,0,1-.255.626L5.651,19.189a.894.894,0,0,1-1.251,0L2.026,16.814a.894.894,0,0,1,0-1.251L6.2,11.387a.879.879,0,0,1,.626-.255.9.9,0,0,1,.418.1L8.513,9.967a2.66,2.66,0,0,0-3.561.171L.774,14.314a2.656,2.656,0,0,0,0,3.749l2.375,2.375a2.656,2.656,0,0,0,3.749,0l4.176-4.176a2.662,2.662,0,0,0,.1-3.645ZM20.44,3.149,18.065.774a2.656,2.656,0,0,0-3.749,0L10.141,4.95A2.66,2.66,0,0,0,9.97,8.511l1.268-1.268a.909.909,0,0,1-.1-.418A.882.882,0,0,1,11.39,6.2l4.176-4.176a.894.894,0,0,1,1.251,0L19.191,4.4a.894.894,0,0,1,0,1.251L15.017,9.827a.892.892,0,0,1-1.141.091l-1.255,1.255a2.659,2.659,0,0,0,3.645-.1L20.442,6.9a2.658,2.658,0,0,0,0-3.751Z" transform="translate(238.949 51.885) rotate(-45)" fill="#2c2f33"/></g><line x2="25" transform="translate(1491.5 2067.5)" fill="none" stroke="#434738" stroke-width="1" stroke-dasharray="2 2"/><line x2="25" transform="translate(1547.5 2067.5)" fill="none" stroke="#434738" stroke-width="1" stroke-dasharray="2 2"/></g><g transform="translate(-16528.773 -5569.268)"><g transform="matrix(1, 0, 0, 1, 17618.77, 7433.27)" filter="url(#a)"><path d="M0,37H0L29.111,0l7.9,8.1-5.222,5.511L27.6,9.319Z" transform="translate(38 27)" fill="#2c2f33"/></g><path d="M17.365,0l.206,6.407L2.7,21.32,0,22.072Z" transform="translate(17664.076 7465.917)" fill="#ff8316"/></g><g transform="translate(-6 14)"><path d="M9.365.3A9.365,9.365,0,0,0,6.4,18.546c.468.088.64-.2.64-.45,0-.222-.008-.812-.012-1.592-2.6.565-3.154-1.256-3.154-1.256a2.482,2.482,0,0,0-1.042-1.37c-.848-.581.066-.569.066-.569a1.964,1.964,0,0,1,1.434.965,2,2,0,0,0,2.727.779,2,2,0,0,1,.6-1.253c-2.08-.234-4.266-1.039-4.266-4.628a3.613,3.613,0,0,1,.964-2.513A3.33,3.33,0,0,1,4.436,4.18s.784-.251,2.575.96a8.829,8.829,0,0,1,4.682,0c1.779-1.211,2.564-.96,2.564-.96a3.422,3.422,0,0,1,.094,2.479,3.628,3.628,0,0,1,.96,2.513c0,3.6-2.189,4.39-4.273,4.62a2.242,2.242,0,0,1,.632,1.732c0,1.253-.012,2.26-.012,2.564,0,.246.164.538.644.445A9.353,9.353,0,0,0,9.365.3" transform="translate(1286 1880.703)" fill="#2c2f33"/><text transform="translate(1282 1908)" fill="#ff8316" font-size="8" font-family="SegoeUI-Bold, Segoe UI" font-weight="700" letter-spacing="0.01em"><tspan x="0" y="0">GitHub</tspan></text></g></g></g></svg>