<svg xmlns="http://www.w3.org/2000/svg" width="16" height="16" viewBox="0 0 16 16"><path d="M33,6a8,8,0,1,0,8,8A8,8,0,0,0,33,6Zm.1,15.4a7.648,7.648,0,0,1-4.666-1.68c.445-.254,2.254-.6,2.666-.889.48-.286.32-1.9.32-1.9l-.32-.286a3.3,3.3,0,0,0-.222-.984,13.1,13.1,0,0,1-.635-1.587.794.794,0,0,1,0-1.27,10.652,10.652,0,0,1-.254-1.9c0-1.778,1.365-2.54,3.206-2.54s2.889.889,2.889,2.54c0,.794-.127,1.9-.127,1.9a.794.794,0,0,1,0,1.27,12.569,12.569,0,0,1-.635,1.587,4.8,4.8,0,0,0-.222.984l-.32.286s-.16,1.619.32,1.9c.413.254,2.19.6,2.635.857A7.44,7.44,0,0,1,33.094,21.4Z" transform="translate(-25 -6)" fill="#2c2f33" fill-rule="evenodd"/></svg>